<svg width="49" height="70" viewBox="0 0 49 70" fill="none" xmlns="http://www.w3.org/2000/svg">
<g clip-path="url(#clip0_5_200)">
<path d="M2.13685 59.0328H6.11379L5.57958 65.4652H44.1024L43.9243 63.1806L8.31 63.0604L8.72548 59.0927H47.6045L48.4948 69.4928H1.18713L2.13685 59.0328Z" fill="#CE2F3D" stroke="#CE2F3D"/>
<path d="M46.0019 39.796H24.6926V43.8237L42.3217 43.8838L42.4998 46.2283L24.6926 46.2884V56.6883H47.4265L47.189 52.6608H28.6102V50.3161H46.8922L46.0019 39.796Z" fill="#CE2F3D" stroke="#CE2F3D"/>
<path d="M5.69828 18.2148H13.1179L13.1773 13.2854V12.7443L13.3554 12.2033L13.5928 11.4218L13.8302 10.52L14.1863 9.79869L14.6018 9.01718L15.0174 8.29583L15.4329 7.7548L15.9077 7.0935L16.9168 5.95133L18.0446 5.04961L18.9943 4.32824L20.0033 3.72709L20.8344 3.36639L21.7841 3.00571L23.1493 2.76525L24.4551 2.64502H25.2862L26.8295 2.76525L27.423 2.88548C27.3439 2.8454 27.4349 2.83739 28.4321 3.12594C29.4293 3.41449 30.6679 4.12785 31.1625 4.44846C32.7058 5.4103 32.5871 5.53052 33.6555 6.37214C34.5103 7.04541 35.3967 8.6164 35.733 9.31777C36.7777 12.0109 36.9202 13.2854 36.9202 14.0067V18.2148H44.2211L45.8831 37.4515H41.8468L40.541 22.3627H36.9202V25.2482V26.1499C37.9886 26.8112 38.4635 31.3593 34.7833 31.1996C33.5382 31.1455 32.7769 30.7146 32.3554 30.1175C31.4376 28.8175 32.1716 26.4505 32.9432 26.0297V22.3627H17.1542V26.0898C18.0446 26.6309 19.3504 30.3579 15.1361 31.1996C11.3372 30.3579 12.0693 27.4724 13.1179 26.0898V22.3627H9.43779L7.95384 39.9162H22.3776V56.7482H2.49298L5.69828 18.2148Z" fill="#1E1E1E" stroke="#1E1E1E"/>
</g>
<defs>
<clipPath id="clip0_5_200">
<rect width="49" height="70" fill="white"/>
</clipPath>
</defs>
</svg>
