<svg width="28" height="28" viewBox="0 0 28 28" fill="none" xmlns="http://www.w3.org/2000/svg">
<path d="M20.9611 0.0109863H7.01665C3.15305 0.0109863 0 3.16404 0 7.02764V20.9943C0 24.8357 3.15305 27.9888 7.01665 27.9888H20.9833C24.8469 27.9888 28 24.8357 28 20.9721V7.02764C27.9778 3.16404 24.8247 0.0109863 20.9611 0.0109863ZM20.9389 10.4916C20.9389 10.647 20.9389 10.8024 20.9389 10.9579C20.9389 15.6208 17.3418 20.9943 10.747 20.9943C8.72641 20.9943 6.83902 20.417 5.26249 19.4178C5.55115 19.44 5.81761 19.4622 6.10627 19.4622C7.79381 19.4622 9.32593 18.9071 10.5472 17.9523C8.97066 17.9301 7.66059 16.9087 7.19429 15.5098C7.41634 15.5542 7.63838 15.5764 7.86043 15.5764C8.1935 15.5764 8.52657 15.532 8.81523 15.4432C7.2165 15.1101 5.99524 13.689 5.99524 11.9793V11.9349C6.43933 12.2013 7.01665 12.3567 7.59397 12.3789C6.63918 11.7572 5.99524 10.6692 5.99524 9.44794C5.99524 8.80401 6.17288 8.20448 6.48374 7.67157C8.26011 9.80322 10.8803 11.2021 13.8557 11.3575C13.7891 11.0911 13.7669 10.8246 13.7669 10.5582C13.7669 8.60417 15.3656 7.02764 17.3418 7.02764C18.3632 7.02764 19.2958 7.44953 19.9619 8.13787C20.7835 7.98244 21.5385 7.69378 22.2268 7.27189C21.9603 8.09346 21.383 8.7818 20.6503 9.2259C21.383 9.13708 22.0714 8.95944 22.7153 8.67078C22.2268 9.38133 21.6273 10.0031 20.9389 10.4916Z" fill="black"/>
</svg>
