<svg width="27" height="27" viewBox="0 0 27 27" fill="none" xmlns="http://www.w3.org/2000/svg">
<path d="M24.8537 0.616943H2.149C0.960421 0.616943 0 1.57646 0 2.76324V24.2379C0 25.4211 0.960421 26.3833 2.149 26.3833H24.8537C26.0369 26.3833 27 25.422 27 24.2379V2.76324C26.9991 1.57646 26.036 0.616943 24.8537 0.616943ZM18.1488 8.26694C17.5906 7.94049 17.1478 7.68257 16.5914 7.68257C16.0467 7.68257 15.5814 7.81875 15.3433 8.0478C15.1052 8.27506 14.9871 8.71514 14.9871 9.36534V10.3276H17.899L17.2686 13.0041H14.9871V21.8977H11.3294V13.0041H9.62224V10.3276H11.3312V9.30582C11.3312 8.22997 11.4601 7.58608 11.7144 7.05492C11.9678 6.52556 12.4593 5.93578 13.1429 5.60211C13.8256 5.26935 14.8356 5.10161 15.8808 5.10161C16.9521 5.10161 17.789 5.45873 18.8152 5.7464L18.1488 8.26694Z" fill="black"/>
</svg>
