<svg width="58" height="60" viewBox="0 0 58 60" fill="none" xmlns="http://www.w3.org/2000/svg">
<path d="M8.82758 44.4828C5.97552 44.4828 3.65517 46.8031 3.65517 49.6552C3.65517 52.5072 5.97552 54.8276 8.82758 54.8276C11.6797 54.8276 14 52.5072 14 49.6552C14 46.8031 11.6797 44.4828 8.82758 44.4828Z" fill="#CE2F3D"/>
<path d="M57.4483 36.2069C57.4483 33.6259 56.0259 32.4186 54.6397 31.8279C55.7259 30.8793 56.4138 29.4838 56.4138 27.931C56.4138 25.079 54.0935 22.7586 51.2414 22.7586H36.38L37.1341 19.231C38.1407 14.5252 37.4797 9.18 37.2541 7.65414C36.7183 4.04069 33.5228 0 30.0479 0H29.8007C28.1497 0 25.3793 0.940345 25.3793 7.24138C25.3793 22.5734 18.4617 22.7586 18.1379 22.7586H17.1034V20.6897H0.551723V60H17.1034V57.931H46.069C48.921 57.931 51.2414 55.6107 51.2414 52.7586C51.2414 51.5545 50.8276 50.4455 50.1355 49.5652C52.5293 49.1131 54.3448 47.0059 54.3448 44.4828C54.3448 43.2786 53.931 42.1697 53.239 41.2893C55.6328 40.8372 57.4483 38.73 57.4483 36.2069ZM2.62069 57.931V22.7586H15.0345V57.931H2.62069Z" fill="#CE2F3D"/>
</svg>
