<?xml version="1.0" encoding="iso-8859-1"?>
<!-- Generator: Adobe Illustrator 19.0.0, SVG Export Plug-In . SVG Version: 6.00 Build 0)  -->
<svg version="1.1" id="Capa_1" xmlns="http://www.w3.org/2000/svg" xmlns:xlink="http://www.w3.org/1999/xlink" x="0px" y="0px"
	 viewBox="0 0 58 58" style="enable-background:new 0 0 58 58;" xml:space="preserve">
<g>
	<path d="M9.5,43c-2.757,0-5,2.243-5,5s2.243,5,5,5s5-2.243,5-5S12.257,43,9.5,43z"/>
	<path d="M56.5,35c0-2.495-1.375-3.662-2.715-4.233C54.835,29.85,55.5,28.501,55.5,27c0-2.757-2.243-5-5-5H36.134l0.729-3.41
		c0.973-4.549,0.334-9.716,0.116-11.191C36.461,3.906,33.372,0,30.013,0h-0.239C28.178,0,25.5,0.909,25.5,7c0,14.821-6.687,15-7,15
		h0h-1v-2h-16v38h16v-2h28c2.757,0,5-2.243,5-5c0-1.164-0.4-2.236-1.069-3.087C51.745,47.476,53.5,45.439,53.5,43
		c0-1.164-0.4-2.236-1.069-3.087C54.745,39.476,56.5,37.439,56.5,35z M3.5,56V22h12v34H3.5z"/>
</g>
<g>
</g>
<g>
</g>
<g>
</g>
<g>
</g>
<g>
</g>
<g>
</g>
<g>
</g>
<g>
</g>
<g>
</g>
<g>
</g>
<g>
</g>
<g>
</g>
<g>
</g>
<g>
</g>
<g>
</g>
</svg>
