<svg width="639" height="156" viewBox="0 0 639 156" fill="none" xmlns="http://www.w3.org/2000/svg">
<path d="M140.23 116.379H148.103L147.045 129.06H223.305L222.952 124.556L152.45 124.319L153.273 116.497H230.237L232 137H138.35L140.23 116.379Z" fill="#CE2F3D" stroke="#CE2F3D"/>
<path d="M227.065 78.455H184.881V86.3953L219.78 86.5138L220.132 91.1358L184.881 91.2543V111.757H229.885L229.415 103.817H192.636V99.1946H228.827L227.065 78.455Z" fill="#CE2F3D" stroke="#CE2F3D"/>
<path d="M147.28 35.9092H161.968L162.086 26.1912V25.1246L162.438 24.058L162.908 22.5173L163.378 20.7396L164.083 19.3175L164.906 17.7768L165.728 16.3547L166.551 15.2881L167.491 13.9844L169.488 11.7327L171.721 9.95502L173.601 8.53287L175.599 7.34775L177.244 6.63668L179.124 5.9256L181.826 5.45156L184.411 5.21453H186.056L189.111 5.45156L190.286 5.68858C190.13 5.60957 190.31 5.59377 192.284 6.16263C194.258 6.73149 196.71 8.13783 197.689 8.76989C200.744 10.6661 200.509 10.9031 202.624 12.5623C204.316 13.8896 206.071 16.9867 206.737 18.3694C208.805 23.6787 209.087 26.1912 209.087 27.6133V35.9092H223.54L226.83 73.833H218.84L216.255 44.0865H209.087V49.7751V51.5528C211.202 52.8564 212.142 61.8227 204.857 61.5078C202.392 61.4012 200.885 60.5517 200.051 59.3746C198.234 56.8118 199.687 52.1453 201.214 51.3157V44.0865H169.958V51.4343C171.721 52.5009 174.306 59.8486 165.963 61.5078C158.443 59.8486 159.892 54.16 161.968 51.4343V44.0865H154.683L151.745 78.692H180.299V111.875H140.935L147.28 35.9092Z" fill="#1E1E1E" stroke="#1E1E1E"/>
<path d="M8.09091 120V26.9091H27.7727V67.9545H29L62.5 26.9091H86.0909L51.5455 68.5909L86.5 120H62.9545L37.4545 81.7273L27.7727 93.5455V120H8.09091Z" fill="black"/>
<path d="M120.023 26.9091V120H100.341V26.9091H120.023Z" fill="#CE2F3D"/>
<path d="M333.227 64.5H313.318C312.955 61.9242 312.212 59.6364 311.091 57.6364C309.97 55.6061 308.53 53.8788 306.773 52.4545C305.015 51.0303 302.985 49.9394 300.682 49.1818C298.409 48.4242 295.939 48.0455 293.273 48.0455C288.455 48.0455 284.258 49.2424 280.682 51.6364C277.106 54 274.333 57.4545 272.364 62C270.394 66.5151 269.409 72 269.409 78.4545C269.409 85.0909 270.394 90.6667 272.364 95.1818C274.364 99.697 277.152 103.106 280.727 105.409C284.303 107.712 288.439 108.864 293.136 108.864C295.773 108.864 298.212 108.515 300.455 107.818C302.727 107.121 304.742 106.106 306.5 104.773C308.258 103.409 309.712 101.758 310.864 99.8182C312.045 97.8788 312.864 95.6667 313.318 93.1818L333.227 93.2727C332.712 97.5455 331.424 101.667 329.364 105.636C327.333 109.576 324.591 113.106 321.136 116.227C317.712 119.318 313.621 121.773 308.864 123.591C304.136 125.379 298.788 126.273 292.818 126.273C284.515 126.273 277.091 124.394 270.545 120.636C264.03 116.879 258.879 111.439 255.091 104.318C251.333 97.197 249.455 88.5758 249.455 78.4545C249.455 68.303 251.364 59.6667 255.182 52.5455C259 45.4242 264.182 40 270.727 36.2727C277.273 32.5151 284.636 30.6364 292.818 30.6364C298.212 30.6364 303.212 31.3939 307.818 32.9091C312.455 34.4242 316.561 36.6364 320.136 39.5454C323.712 42.4242 326.621 45.9545 328.864 50.1364C331.136 54.3182 332.591 59.1061 333.227 64.5ZM347.341 125V31.9091H367.023V70.3182H406.977V31.9091H426.614V125H406.977V86.5455H367.023V125H347.341ZM458.886 125H437.795L469.932 31.9091H495.295L527.386 125H506.295L482.977 53.1818H482.25L458.886 125ZM457.568 88.4091H507.386V103.773H457.568V88.4091ZM558.273 31.9091V125H538.591V31.9091H558.273Z" fill="#CE2F3D"/>
<path d="M590.739 97.0909V95.5455C590.769 90.2424 591.239 86.0152 592.148 82.8636C593.087 79.7121 594.451 77.1667 596.239 75.2273C598.027 73.2879 600.178 71.5303 602.693 69.9545C604.572 68.7424 606.254 67.4848 607.739 66.1818C609.223 64.8788 610.405 63.4394 611.284 61.8636C612.163 60.2576 612.602 58.4697 612.602 56.5C612.602 54.4091 612.102 52.5758 611.102 51C610.102 49.4242 608.754 48.2121 607.057 47.3636C605.39 46.5151 603.542 46.0909 601.511 46.0909C599.542 46.0909 597.678 46.5303 595.92 47.4091C594.163 48.2576 592.723 49.5303 591.602 51.2273C590.481 52.8939 589.875 54.9697 589.784 57.4545H571.239C571.39 51.3939 572.845 46.3939 575.602 42.4545C578.36 38.4848 582.011 35.5303 586.557 33.5909C591.102 31.6212 596.117 30.6364 601.602 30.6364C607.633 30.6364 612.966 31.6364 617.602 33.6364C622.239 35.6061 625.875 38.4697 628.511 42.2273C631.148 45.9848 632.466 50.5151 632.466 55.8182C632.466 59.3636 631.875 62.5151 630.693 65.2727C629.542 68 627.92 70.4242 625.83 72.5455C623.739 74.6364 621.269 76.5303 618.42 78.2273C616.027 79.6515 614.057 81.1364 612.511 82.6818C610.996 84.2273 609.86 86.0152 609.102 88.0455C608.375 90.0758 607.996 92.5758 607.966 95.5455V97.0909H590.739ZM599.739 126.182C596.708 126.182 594.117 125.121 591.966 123C589.845 120.848 588.799 118.273 588.83 115.273C588.799 112.303 589.845 109.758 591.966 107.636C594.117 105.515 596.708 104.455 599.739 104.455C602.617 104.455 605.148 105.515 607.33 107.636C609.511 109.758 610.617 112.303 610.648 115.273C610.617 117.273 610.087 119.106 609.057 120.773C608.057 122.409 606.739 123.727 605.102 124.727C603.466 125.697 601.678 126.182 599.739 126.182Z" fill="black"/>
<path d="M124.266 128H133.5L132.918 137H8V128H124.266Z" fill="#CE2F3D"/>
<path d="M133.5 128H124.266H8M133.5 128H8M133.5 128L132.918 137H8V128" stroke="#CE2F3D"/>
</svg>

