<svg width="60" height="60" viewBox="0 0 60 60" fill="none" xmlns="http://www.w3.org/2000/svg">
<g clip-path="url(#clip0_3_74)">
<path d="M59.9474 23.1743C59.8207 22.7855 59.4845 22.502 59.0796 22.4429L39.6513 19.6194L30.9628 2.01478C30.7824 1.64748 30.4087 1.4155 30.0005 1.4155C29.5924 1.4155 29.2176 1.64748 29.0383 2.01478L20.3487 19.6205L0.92041 22.444C0.515519 22.5031 0.180438 22.7855 0.0526344 23.1754C-0.0730212 23.5631 0.0311548 23.9905 0.324351 24.2751L14.3838 37.9791L11.0641 57.3301C10.9954 57.7328 11.1608 58.1399 11.4905 58.3804C11.8224 58.6231 12.2616 58.6543 12.6214 58.4621L30.0005 49.3268L47.3775 58.4621C47.5343 58.5448 47.7072 58.5856 47.878 58.5856C48.1003 58.5856 48.3216 58.5168 48.5095 58.3804C48.8403 58.1399 49.0057 57.7328 48.9359 57.3301L45.6173 37.9802L59.6767 24.2751C59.9689 23.9884 60.0741 23.562 59.9474 23.1743Z" fill="#CE2F3D"/>
</g>
<defs>
<clipPath id="clip0_3_74">
<rect width="60" height="60" fill="white"/>
</clipPath>
</defs>
</svg>
