<svg width="29" height="28" viewBox="0 0 29 28" fill="none" xmlns="http://www.w3.org/2000/svg">
<path d="M6.53203 8.99683H0.898593C0.648572 8.99683 0.445984 9.1995 0.445984 9.44943V27.5473C0.445984 27.7973 0.648572 27.9999 0.898593 27.9999H6.53203C6.78205 27.9999 6.98464 27.7973 6.98464 27.5473V9.44943C6.98464 9.1995 6.78205 8.99683 6.53203 8.99683Z" fill="black"/>
<path d="M3.71737 0C1.66759 0 0 1.66578 0 3.71329C0 5.76171 1.66759 7.42812 3.71737 7.42812C5.76551 7.42812 7.43174 5.76162 7.43174 3.71329C7.43184 1.66578 5.76551 0 3.71737 0Z" fill="black"/>
<path d="M20.8611 8.54712C18.5985 8.54712 16.9259 9.51977 15.9114 10.625V9.44953C15.9114 9.1996 15.7088 8.99692 15.4588 8.99692H10.0638C9.81379 8.99692 9.61121 9.1996 9.61121 9.44953V27.5474C9.61121 27.7974 9.81379 28 10.0638 28H15.6849C15.935 28 16.1376 27.7974 16.1376 27.5474V18.5931C16.1376 15.5758 16.9571 14.4003 19.0605 14.4003C21.3512 14.4003 21.5333 16.2847 21.5333 18.7484V27.5475C21.5333 27.7975 21.7359 28.0001 21.9859 28.0001H27.6091C27.8591 28.0001 28.0617 27.7975 28.0617 27.5475V17.6205C28.0617 13.1338 27.2062 8.54712 20.8611 8.54712Z" fill="black"/>
</svg>
