<svg width="97" height="138" viewBox="0 0 97 138" fill="none" xmlns="http://www.w3.org/2000/svg">
<path d="M4.23009 116.379H12.1028L11.0453 129.06H87.3047L86.9522 124.556L16.4504 124.319L17.2729 116.497H94.2374L96 137H2.35004L4.23009 116.379Z" fill="#CE2F3D" stroke="#CE2F3D"/>
<path d="M91.0649 78.455H48.8813V86.3953L83.7797 86.5138L84.1322 91.1358L48.8813 91.2543V111.757H93.885L93.415 103.817H56.6365V99.1946H92.8274L91.0649 78.455Z" fill="#CE2F3D" stroke="#CE2F3D"/>
<path d="M11.2803 35.9092H25.9682L26.0857 26.1912V25.1246L26.4382 24.058L26.9082 22.5173L27.3782 20.7396L28.0832 19.3175L28.9057 17.7768L29.7283 16.3547L30.5508 15.2881L31.4908 13.9844L33.4884 11.7327L35.7209 9.95502L37.601 8.53288L39.5985 7.34776L41.2436 6.63668L43.1236 5.92561L45.8262 5.45156L48.4112 5.21454H50.0563L53.1114 5.45156L54.2864 5.68859C54.1297 5.60958 54.3099 5.59378 56.284 6.16264C58.258 6.73149 60.7099 8.13784 61.6891 8.7699C64.7442 10.6661 64.5092 10.9031 66.6242 12.5623C68.3163 13.8896 70.071 16.9867 70.7368 18.3694C72.8049 23.6787 73.0869 26.1912 73.0869 27.6133V35.9092H87.5398L90.8298 73.833H82.8396L80.2546 44.0865H73.0869V49.7751V51.5528C75.2019 52.8564 76.142 61.8227 68.8568 61.5078C66.3919 61.4012 64.885 60.5517 64.0505 59.3746C62.2336 56.8118 63.6866 52.1453 65.2142 51.3158V44.0865H33.9584V51.4343C35.7209 52.5009 38.306 59.8486 29.9633 61.5078C22.4431 59.8486 23.8923 54.16 25.9682 51.4343V44.0865H18.683L15.7454 78.692H44.2986V111.875H4.93512L11.2803 35.9092Z" fill="#1E1E1E" stroke="#1E1E1E"/>
</svg>
