<?xml version="1.0" encoding="iso-8859-1"?>
<!-- Generator: Adobe Illustrator 19.0.0, SVG Export Plug-In . SVG Version: 6.00 Build 0)  -->
<svg version="1.1" id="Layer_1" xmlns="http://www.w3.org/2000/svg" xmlns:xlink="http://www.w3.org/1999/xlink" x="0px" y="0px"
	 viewBox="0 0 455.861 455.861" style="enable-background:new 0 0 455.861 455.861;" xml:space="preserve">
<g>
	<g>
		<g>
			<path d="M52.616,139.032l102.427,88.898L52.616,316.828c-6.162,5.349-6.823,14.68-1.474,20.843
				c5.349,6.162,14.68,6.821,20.842,1.474l105.6-91.651l40.663,35.292c2.778,2.411,6.231,3.616,9.684,3.616s6.906-1.205,9.684-3.616
				l40.663-35.292l105.6,91.651c6.162,5.348,15.493,4.688,20.842-1.474c5.349-6.163,4.688-15.494-1.474-20.843L300.819,227.93
				l102.427-88.898c6.163-5.349,6.823-14.68,1.474-20.843c-5.349-6.163-14.682-6.822-20.842-1.474
				c-8.592,7.457-146.799,127.408-155.947,135.348c-9.151-7.942-147.358-127.893-155.947-135.348
				c-6.162-5.348-15.494-4.687-20.842,1.474C45.793,124.352,46.454,133.683,52.616,139.032z"/>
			<path d="M441.088,63.154H14.774C6.615,63.154,0,69.77,0,77.929v300.003c0,8.16,6.615,14.774,14.774,14.774h426.313
				c8.16,0,14.774-6.614,14.774-14.774V77.929C455.862,69.77,449.248,63.154,441.088,63.154z M426.314,363.157h-0.001H29.549V92.703
				h396.765V363.157z"/>
		</g>
	</g>
</g>
<g>
</g>
<g>
</g>
<g>
</g>
<g>
</g>
<g>
</g>
<g>
</g>
<g>
</g>
<g>
</g>
<g>
</g>
<g>
</g>
<g>
</g>
<g>
</g>
<g>
</g>
<g>
</g>
<g>
</g>
</svg>
