<?xml version="1.0" encoding="iso-8859-1"?>
<!-- Generator: Adobe Illustrator 19.0.0, SVG Export Plug-In . SVG Version: 6.00 Build 0)  -->
<svg version="1.1" id="Layer_1" xmlns="http://www.w3.org/2000/svg" xmlns:xlink="http://www.w3.org/1999/xlink" x="0px" y="0px"
	 viewBox="0 0 499.698 499.698" style="enable-background:new 0 0 499.698 499.698;" xml:space="preserve">
<g>
	<path style="fill:#FF5023;" d="M217.279,359.294l-91.373-91.373l28.285-28.284l63.088,63.088l32.57-32.57V0l-14.402,14.948
		C188.739,63.425,128.045,90.124,64.544,90.126c-12.13,0-24.388-1.009-36.433-3L3.902,83.124l0.963,24.519
		c2.861,72.846,16.971,138.61,41.938,195.463c20.175,45.941,47.421,86.163,80.982,119.547
		c57.637,57.333,113.968,74.626,116.337,75.334l5.727,1.711V326.724L217.279,359.294z"/>
	<path style="fill:#FF3501;" d="M471.588,87.126c-12.04,1.99-24.298,3-36.434,3c-63.496,0.002-124.19-26.697-170.902-75.178
		L249.849,0v270.156l95.659-95.657l28.283,28.284L249.849,326.724v172.975l5.727-1.711c2.369-0.708,58.7-18.001,116.337-75.334
		c33.562-33.385,60.808-73.606,80.982-119.547c24.968-56.853,39.077-122.616,41.938-195.463l0.963-24.519L471.588,87.126z"/>
	<polygon style="fill:#FFDA44;" points="154.191,239.637 125.906,267.921 217.279,359.294 249.849,326.724 373.792,202.782 
		345.508,174.498 249.849,270.156 217.279,302.725 	"/>
</g>
<g>
</g>
<g>
</g>
<g>
</g>
<g>
</g>
<g>
</g>
<g>
</g>
<g>
</g>
<g>
</g>
<g>
</g>
<g>
</g>
<g>
</g>
<g>
</g>
<g>
</g>
<g>
</g>
<g>
</g>
</svg>
