<svg width="23" height="23" viewBox="0 0 23 23" fill="none" xmlns="http://www.w3.org/2000/svg">
<path d="M16.1482 0H6.85182C3.07371 0 0 3.07371 0 6.85182V16.1482C0 19.9263 3.07371 23 6.85182 23H16.1482C19.9263 23 23 19.9263 23 16.1482V6.85182C23 3.07371 19.9262 0 16.1482 0ZM20.6862 16.1482C20.6862 18.6544 18.6544 20.6862 16.1482 20.6862H6.85182C4.34556 20.6862 2.3138 18.6544 2.3138 16.1482V6.85182C2.3138 4.34552 4.34556 2.3138 6.85182 2.3138H16.1482C18.6544 2.3138 20.6862 4.34552 20.6862 6.85182V16.1482Z" fill="url(#paint0_linear_6_302)"/>
<path d="M11.5 5.55127C8.21994 5.55127 5.55139 8.21981 5.55139 11.4998C5.55139 14.7799 8.21994 17.4485 11.5 17.4485C14.7801 17.4485 17.4486 14.7799 17.4486 11.4998C17.4486 8.21977 14.7801 5.55127 11.5 5.55127ZM11.5 15.1347C9.49254 15.1347 7.86519 13.5074 7.86519 11.4999C7.86519 9.49242 9.49258 7.86507 11.5 7.86507C13.5075 7.86507 15.1348 9.49242 15.1348 11.4999C15.1348 13.5073 13.5074 15.1347 11.5 15.1347Z" fill="url(#paint1_linear_6_302)"/>
<path d="M17.46 7.02139C18.2472 7.02139 18.8853 6.38323 18.8853 5.59602C18.8853 4.80881 18.2472 4.17065 17.46 4.17065C16.6728 4.17065 16.0346 4.80881 16.0346 5.59602C16.0346 6.38323 16.6728 7.02139 17.46 7.02139Z" fill="url(#paint2_linear_6_302)"/>
<defs>
<linearGradient id="paint0_linear_6_302" x1="11.5" y1="22.933" x2="11.5" y2="0.178636" gradientUnits="userSpaceOnUse">
<stop stop-color="#E09B3D"/>
<stop offset="0.3" stop-color="#C74C4D"/>
<stop offset="0.6" stop-color="#C21975"/>
<stop offset="1" stop-color="#7024C4"/>
</linearGradient>
<linearGradient id="paint1_linear_6_302" x1="11.5" y1="22.9329" x2="11.5" y2="0.178526" gradientUnits="userSpaceOnUse">
<stop stop-color="#E09B3D"/>
<stop offset="0.3" stop-color="#C74C4D"/>
<stop offset="0.6" stop-color="#C21975"/>
<stop offset="1" stop-color="#7024C4"/>
</linearGradient>
<linearGradient id="paint2_linear_6_302" x1="17.46" y1="22.9329" x2="17.46" y2="0.178535" gradientUnits="userSpaceOnUse">
<stop stop-color="#E09B3D"/>
<stop offset="0.3" stop-color="#C74C4D"/>
<stop offset="0.6" stop-color="#C21975"/>
<stop offset="1" stop-color="#7024C4"/>
</linearGradient>
</defs>
</svg>
