<svg width="60" height="60" viewBox="0 0 60 60" fill="none" xmlns="http://www.w3.org/2000/svg">
<g clip-path="url(#clip0_3_33)">
<path d="M26.0893 43.1413L15.1179 32.1699L18.5141 28.7738L26.0893 36.349L30 32.4382V0L28.2707 1.79484C22.6624 7.6156 15.3747 10.8214 7.74997 10.8217C6.29349 10.8217 4.82165 10.7005 3.37537 10.4614L0.468536 9.98091L0.584166 12.925C0.927694 21.6718 2.62192 29.5682 5.61977 36.3947C8.04223 41.911 11.3137 46.7405 15.3435 50.749C22.2641 57.6331 29.0279 59.7095 29.3124 59.7946L30 60V39.2306L26.0893 43.1413Z" fill="#FF5023"/>
<path d="M56.6248 10.4614C55.1791 10.7004 53.7072 10.8217 52.25 10.8217C44.6259 10.8219 37.3382 7.61608 31.7294 1.79484L30 0V32.4383L41.486 20.9525L44.882 24.3487L30 39.2306V60.0001L30.6877 59.7947C30.9721 59.7097 37.7359 57.6333 44.6565 50.7491C48.6864 46.7405 51.9579 41.9111 54.3802 36.3948C57.3782 29.5683 59.0723 21.672 59.4158 12.9251L59.5315 9.98103L56.6248 10.4614Z" fill="#CE2F3D"/>
<path d="M18.5141 28.7738L15.1179 32.17L26.0892 43.1413L30 39.2306L44.8822 24.3486L41.486 20.9524L30 32.4383L26.0892 36.349L18.5141 28.7738Z" fill="black"/>
</g>
<defs>
<clipPath id="clip0_3_33">
<rect width="60" height="60" fill="white"/>
</clipPath>
</defs>
</svg>
